<?xml version="1.0" encoding="utf-8"?>
<?xml-stylesheet type="text/xsl" href="rss1.xsl"?>
<rss version="2.0" xmlns:atom="http://www.w3.org/2005/Atom" xmlns:content="http://purl.org/rss/1.0/modules/content/" xmlns:dc="http://purl.org/dc/elements/1.1/" xmlns:media="http://search.yahoo.com/mrss/">
<channel>
 <title>Getty</title>
 <link>http://www.gettyimg.com/</link>
 <atom:link href="http://www.gettyimg.com/" rel="self" type="application/rss+xml" />

 
                <item>
                <title><![CDATA[【Cinema Center】SERIES - X-Men.97.S01.1080p.10bit.WEBRip.6CH.x265.HEVC-PSA (2.96 GB)]]></title>
                <link><![CDATA[https://sharemania.us/threads/x-men-97-s01-1080p-10bit-webrip-6ch-x265-hevc-psa-2-96-gb.244613/]]></link>
                <description><![CDATA[<article>
<blockquote class="messageText SelectQuoteContainer ugc baseHtml">
<img src="https://i.imgur.com/GpaXqIt.png" class="bbCodeImage LbImage" alt="[​IMG]" data-url="https://i.imgur.com/GpaXqIt.png" style=""> <br>
<br>
MEGA (base64)<br>
<div class="bbCodeBlock bbCodeVfcHH HiddenContent">
<div class="attribution type">Hidden Content:</div>
<blockquote>You must reply before you can see the hidden data contained here.</blockquote>
</div>
<div class="messageTextEndMarker">&nbsp;</div>
</blockquote>
</article>]]></description>
                <author><![CDATA[ksr91]]></author>
                </item>

                
                <item>
                <title><![CDATA[【UPSCALED】Reyli Barba - Amor del Bueno (AI Upscale 1080p)]]></title>
                <link><![CDATA[https://sharemania.us/threads/reyli-barba-amor-del-bueno-ai-upscale-1080p.244614/]]></link>
                <description><![CDATA[<article>
<blockquote class="messageText SelectQuoteContainer ugc baseHtml">
<a href="https://ibb.co/kcfBQLj" target="_blank" class="externalLink" rel="nofollow"><img src="https://i.ibb.co/vzGqZNp/Amor-del-Bueno-mp4-thumbs.jpg" class="bbCodeImage LbImage" alt="[​IMG]" data-url="https://i.ibb.co/vzGqZNp/Amor-del-Bueno-mp4-thumbs.jpg"></a><br>
<br>
<b>
<div class="bbCodeBlock bbCodeVfcHH HiddenContent">
<div class="attribution type">Hidden Content:</div>
<blockquote>You must reply before you can see the hidden data contained here.</blockquote>
</div></b>
<div class="messageTextEndMarker">&nbsp;</div>
</blockquote>
</article>]]></description>
                <author><![CDATA[JonathanM]]></author>
                </item>

                
                <item>
                <title><![CDATA[【Requests】[REQ AUD] - Juan Luis Guerra | Grandes Éxitos (1995) | FLAC]]></title>
                <link><![CDATA[https://sharemania.us/threads/juan-luis-guerra-grandes-%C3%89xitos-1995-flac.244612/]]></link>
                <description><![CDATA[<article>
<blockquote class="messageText SelectQuoteContainer ugc baseHtml">
Hello. I hope you are doing well.<br>
<br>
Qobuz | 16 bits/44,1 kHz: <a href="https://www.qobuz.com/us-en/album/grandes-exitos-juan-luis-guerra-440/af0mzse4ip0ub" target="_blank" class="externalLink" rel="nofollow">https://www.qobuz.com/us-en/album/grandes-exitos-juan-luis-guerra-440/af0mzse4ip0ub</a><br>
<br>
Qobuz if is possible. Thanks you so much in advance.
<div class="messageTextEndMarker">&nbsp;</div>
</blockquote>
</article>]]></description>
                <author><![CDATA[Taiger]]></author>
                </item>

                
                <item>
                <title><![CDATA[【Requests】[REQ AUD] - Chrisye - Lirih (2008)]]></title>
                <link><![CDATA[https://sharemania.us/threads/chrisye-lirih-2008.244615/]]></link>
                <description><![CDATA[<article>
<blockquote class="messageText SelectQuoteContainer ugc baseHtml">
Hi everything, I need this song in FLAC<br>
<a href="https://open.spotify.com/intl-id/album/19eBuzYl59WEYTQLkoDTSd" target="_blank" class="externalLink" rel="nofollow">https://open.spotify.com/intl-id/album/19eBuzYl59WEYTQLkoDTSd</a><br>
<img src="https://encrypted-tbn0.gstatic.com/images?q=tbn:ANd9GcRpKFDKo8xnkj3HodHie6pil5oBz-6upDKVW-eUcri41uWXgzJ2MFOeLFk&amp;s=10" class="bbCodeImage LbImage" alt="[​IMG]" data-url="https://encrypted-tbn0.gstatic.com/images?q=tbn:ANd9GcRpKFDKo8xnkj3HodHie6pil5oBz-6upDKVW-eUcri41uWXgzJ2MFOeLFk&amp;s=10" style=""> <br>
Thanks
<div class="messageTextEndMarker">&nbsp;</div>
</blockquote>
</article>]]></description>
                <author><![CDATA[yoyon]]></author>
                </item>

                
                <item>
                <title><![CDATA[【Unreleased/Unofficial (lossless)】WAV - Miley Cyrus - Psycho Killer (True Immersive 7.1) 16bits 48kHz 8ch]]></title>
                <link><![CDATA[https://sharemania.us/threads/miley-cyrus-psycho-killer-true-immersive-7-1-16bits-48khz-8ch.244611/]]></link>
                <description><![CDATA[<article>
<blockquote class="messageText SelectQuoteContainer ugc baseHtml">
<div style="text-align: center"><img src="https://i.imgur.com/BwLudT1.jpeg" class="bbCodeImage LbImage" alt="[​IMG]" data-url="https://i.imgur.com/BwLudT1.jpeg" style=""> ​</div>As always, creating songs that were not released in Dolby Atmos or Sony 360 Reality Audio.<br>
<br>
<b>ATTENTION:</b> this song in 7.1 is something experimental, it's the first one I work in 7.1, I don't mean it's bad, it's just that it's new for me, I was just experimenting.<br>
<br>
<b>You may need to activate Dolby Atmos on your device if it has the option to do so.</b><br>
<br>
In case you prefer it, I will also leave a downmix to 5.1.<br>
<br>
<br>
<div style="text-align: left"><br>
<div class="ToggleTriggerAnchor bbCodeSpoilerContainer">
<button type="button" class="button bbCodeSpoilerButton ToggleTrigger Tooltip JsOnly" data-target="> .SpoilerTarget"><span>Spoiler: <span class="SpoilerTitle">MediaInfo</span></span></button>
<div class="SpoilerTarget bbCodeSpoilerText">Format : Wave<br>
Format settings : PcmWaveformat<br>
File size : 173 MiB<br>
Duration : 3 min 45 s<br>
Overall bit rate mode : Constant<br>
Overall bit rate : 6 429 kb/s<br>
Album : Psycho Killer<br>
Track name : Psycho Killer (True Immersive 7.1)<br>
Track name/Position : 01<br>
Performer : Miley Cyrus<br>
Director : Miley Cyrus<br>
Producer : -<br>
Genre : Alt. Rock<br>
Recorded date : 2024<br>
Encoded date : 2024-05-17 20-01-37<br>
Original source form/Name : Psycho Killer<br>
Cover : Yes<br>
Cover type : Cover (front)<br>
Cover MIME : image/png<br>
Comment : True Immersive edition made by not so secret lab and published by narXerino.<br>
ITRK : 01<br>
<br>
Audio<br>
Format : PCM<br>
Format settings : Little / Signed<br>
Codec ID : 1<br>
Duration : 3 min 45 s<br>
Bit rate mode : Constant<br>
Bit rate : 6 144 kb/s<br>
Channel(s) : 8 channels<br>
Sampling rate : 48.0 kHz<br>
Bit depth : 16 bits<br>
Stream size : 165 MiB (96%)<br>
<br>
<br>
Format : MPEG-4<br>
Format profile : Base Media / Version 2<br>
Codec ID : mp42 (mp42/dby1)<br>
File size : 24.9 MiB<br>
Duration : 3 min 45 s<br>
Overall bit rate mode : Constant<br>
Overall bit rate : 927 kb/s<br>
Album : Psycho Killer<br>
Track name : Psycho Killer (True Immersive 5.1)<br>
Track name/Position : 1<br>
Track name/Total : 1<br>
Performer : Miley Cyrus<br>
Genre : Alternative Rock<br>
Recorded date : 2024<br>
Encoded date : 2024-05-17 23:28:52 UTC<br>
Tagged date : 2024-05-17 23:28:52 UTC<br>
Copyright : ℗© 2024 A24 Music<br>
Cover : Yes<br>
Comment : True Immersive edition made by not so secret lab and published by narXerino. / / All credits to ℗© 2024 A24 Music.<br>
<br>
Audio<br>
ID : 1<br>
Format : AC-3<br>
Format/Info : Audio Coding 3<br>
Commercial name : Dolby Digital<br>
Codec ID : ac-3<br>
Duration : 3 min 45 s<br>
Bit rate mode : Constant<br>
Bit rate : 640 kb/s<br>
Channel(s) : 6 channels<br>
Channel layout : L R C LFE Ls Rs<br>
Sampling rate : 48.0 kHz<br>
Frame rate : 31.250 FPS (1536 SPF)<br>
Compression mode : Lossy<br>
Stream size : 17.2 MiB (69%)<br>
Service kind : Complete Main<br>
Default : Yes<br>
Alternate group : 2<br>
Encoded date : 2024-05-17 23:28:52 UTC<br>
Tagged date : 2024-05-17 23:28:52 UTC</div>
</div></div> <br>
<div style="text-align: left">​</div><div style="text-align: center"><b>Download (7.1 &amp; 5.1)</b><br>
<div class="bbCodeBlock bbCodeVfcHH HiddenContent">
<div class="attribution type">Hidden Content:</div>
<blockquote>You must reply before you can see the hidden data contained here.</blockquote>
</div></div>
<div class="messageTextEndMarker">&nbsp;</div>
</blockquote>
</article>]]></description>
                <author><![CDATA[narxerino]]></author>
                </item>

                </channel></rss>